<svg width="6711" height="1234" viewBox="0 0 6711 1234" fill="none" xmlns="http://www.w3.org/2000/svg">
<g clip-path="url(#clip0_1186_3)">
<path d="M670 156H773C621 540 453 1194 169 1194C122 1194 88 1176 88 1142C88 1114 110 1109 111 1084C112 1059 92 1044 66 1044C24 1044 0 1081 0 1124C0 1197 67 1234 156 1234C415 1234 582 921 747 499H1103L961 842L864 861L854 884H1144L1153 863L1072 842C1149 587 1332 81 1463 81C1496 81 1501 113 1501 128C1501 160 1522 176 1549 176C1579 176 1600 157 1600 124C1600 82 1565 46 1499 44C1320 40 1198 298 1122 459H764L890 156L986 137L996 114H710C486 114 391 181 391 284C391 349 429 411 510 413C562 414 593 389 593 355C593 333 580 317 556 317C528 317 510 338 478 338C440 338 422 310 422 270C422 213 459 156 670 156ZM1657 344C1717 344 1755 370 1755 413C1755 495 1617 580 1415 615C1377 686 1358 745 1358 791C1358 837 1377 859 1416 859C1478 859 1563 804 1622 725L1644 739C1562 842 1478 894 1392 894C1308 894 1261 845 1261 760C1261 641 1354 496 1479 409C1541 366 1601 344 1657 344ZM1469 523L1437 582C1556 559 1675 477 1675 406C1675 385 1665 375 1643 375C1589 375 1514 438 1469 523ZM2704 68C2422 68 2173 260 1998 504L1993 502C2014 469 2036 436 2036 400C2036 366 2017 344 1977 344C1912 344 1856 400 1810 458L1829 474C1859 436 1890 389 1931 389C1945 389 1950 394 1950 404C1950 414 1944 426 1939 438L1746 884H1843L1931 690C2067 390 2378 111 2656 111C2737 111 2756 135 2756 165C2756 200 2781 214 2807 214C2843 214 2864 188 2864 152C2864 97 2813 68 2704 68ZM2530 344C2590 344 2628 370 2628 413C2628 495 2490 580 2288 615C2250 686 2231 745 2231 791C2231 837 2250 859 2289 859C2351 859 2436 804 2495 725L2517 739C2435 842 2351 894 2265 894C2181 894 2134 845 2134 760C2134 641 2227 496 2352 409C2414 366 2474 344 2530 344ZM2342 523L2310 582C2429 559 2548 477 2548 406C2548 385 2538 375 2516 375C2462 375 2387 438 2342 523ZM4174 344C4109 344 4049 392 3981 504L3976 502C4009 449 4019 423 4019 397C4019 362 4001 344 3969 344C3917 344 3846 390 3793 458L3812 474C3852 425 3897 389 3921 389C3928 389 3933 392 3933 400C3933 407 3929 421 3922 438L3729 884H3826L3919 690C3966 593 4006 523 4037 481C4072 432 4103 409 4132 409C4147 409 4155 415 4166 426C4180 439 4189 445 4206 445C4234 445 4250 428 4250 402C4250 366 4218 344 4174 344ZM5511 894C5415 894 5352 831 5337 733C5318 613 5377 481 5474 403C5524 363 5575 344 5628 344C5724 344 5787 406 5803 504C5822 625 5762 757 5665 835C5615 875 5563 894 5511 894ZM5642 379C5573 379 5493 485 5451 617C5431 679 5423 736 5430 782C5439 835 5466 859 5496 859C5562 859 5645 748 5689 618C5711 551 5718 494 5712 454C5704 402 5674 379 5642 379ZM6285 0C6182 0 6052 27 6052 105C6052 138 6075 161 6108 161C6138 161 6162 141 6162 105C6162 44 6234 32 6298 32C6518 32 6681 176 6681 427C6681 612 6592 844 6426 844C6361 844 6328 809 6312 759C6412 657 6525 548 6525 426C6525 369 6500 344 6452 344C6354 344 6289 447 6249 531C6217 599 6201 655 6201 714C6201 743 6205 772 6217 799C6181 824 6142 846 6103 846C6050 846 6028 804 6028 749C6028 649 6102 562 6153 482C6184 434 6203 394 6222 354H6065C5975 354 5877 374 5877 463C5877 510 5905 546 5951 546C5979 546 6001 532 6001 506C6001 486 5989 474 5972 474C5949 474 5944 494 5924 494C5912 494 5906 486 5906 473C5906 435 5958 433 5999 433H6148C6123 473 6094 510 6045 561C5996 613 5922 684 5922 773C5922 853 5982 894 6058 894C6120 894 6180 867 6233 829C6264 875 6316 894 6381 894C6616 894 6711 649 6711 440C6711 151 6528 0 6285 0ZM6300 668C6300 517 6381 377 6439 377C6456 377 6461 389 6461 413C6461 500 6395 624 6304 721C6301 705 6300 685 6300 668ZM4371 281C4371 348 4410 413 4491 415C4543 416 4574 391 4574 357C4574 335 4561 319 4537 319C4509 319 4491 340 4459 340C4421 340 4402 309 4402 270C4402 202 4458 156 4615 156H4740C4679 510 4480 862 4339 862C4305 862 4278 841 4278 812C4278 786 4300 785 4301 757C4302 732 4285 717 4257 717C4216 717 4190 748 4190 796C4190 863 4240 907 4315 907C4469 907 4605 725 4759 315C4892 807 5307 1230 5700 1230C5846 1230 5931 1172 5931 1070C5931 1017 5908 987 5867 987C5832 987 5809 1008 5809 1041C5809 1076 5835 1072 5832 1112C5827 1164 5781 1192 5702 1192C5498 1192 5276 1006 5103 769C5165 469 5320 146 5413 146C5429 146 5441 155 5441 173C5441 198 5465 204 5482 204C5518 204 5537 178 5537 148C5537 103 5494 80 5453 80C5299 80 5156 404 5080 737C4951 551 4854 329 4824 114H4624C4477 114 4371 171 4371 281ZM2919 732C2960 636 2990 561 3020 491L3065 386H2975L2987 354H3076L3107 293C3174 162 3318 44 3487 44C3707 44 3738 246 3738 382C3738 677 3593 894 3393 894C3281 894 3220 825 3220 708C3220 521 3377 368 3491 368C3542 368 3579 398 3579 469C3579 548 3533 680 3444 680C3408 680 3384 659 3384 624C3384 585 3413 568 3444 568C3475 568 3479 585 3497 585C3540 585 3550 489 3550 461C3550 420 3528 405 3500 405C3395 405 3311 615 3311 744C3311 820 3340 859 3397 859C3532 859 3675 635 3675 345C3675 231 3653 76 3488 76C3338 76 3246 204 3196 327L3185 354H3283L3270 386H3173L3131 487C3105 550 3060 653 3043 692C2963 870 2896 970 2844 1030C2769 1116 2707 1140 2645 1140C2565 1140 2512 1100 2512 1054C2512 1026 2532 1006 2560 1006C2593 1006 2606 1034 2606 1057C2606 1094 2639 1101 2663 1101C2725 1101 2751 1053 2778 1015C2832 939 2877 829 2919 732Z" fill="white"/>
</g>
<defs>
<clipPath id="clip0_1186_3">
<rect width="6711" height="1234" fill="white"/>
</clipPath>
</defs>
</svg>
